<?xml version="1.0" standalone="no"?>
<!DOCTYPE svg PUBLIC "-//W3C//DTD SVG 20010904//EN"
 "http://www.w3.org/TR/2001/REC-SVG-20010904/DTD/svg10.dtd">
<svg version="1.0" xmlns="http://www.w3.org/2000/svg"
 width="700.000000pt" height="700.000000pt" viewBox="0 0 700.000000 700.000000"
 preserveAspectRatio="xMidYMid meet">
<metadata>
Created by potrace 1.14, written by Peter Selinger 2001-2017
</metadata>
<g transform="translate(0.000000,700.000000) scale(0.100000,-0.100000)"
fill="#000000" stroke="none">
<path d="M1174 5043 c7 -16 583 -1016 1241 -2153 180 -311 513 -886 739 -1277
226 -392 413 -713 416 -713 3 0 224 379 492 842 267 464 692 1199 943 1633
844 1459 954 1650 960 1666 5 12 -224 -45 -937 -236 -1694 -453 -2009 -538
-2006 -545 11 -26 544 -940 548 -940 3 0 43 64 88 143 45 78 85 147 90 154 7
11 540 158 548 151 5 -5 -719 -1258 -726 -1258 -7 0 -32 43 -663 1139 -271
470 -491 857 -490 860 2 3 53 21 115 39 62 18 144 42 181 53 38 11 67 22 65
24 -1 2 -334 91 -738 200 -404 108 -766 205 -803 215 -62 17 -68 17 -63 3z"/>
</g>
</svg>
